<?xml version="1.0" encoding="UTF-8"?>
<svg width="80px" height="80px" viewBox="0 0 80 80" version="1.1" xmlns="http://www.w3.org/2000/svg" xmlns:xlink="http://www.w3.org/1999/xlink">
    <title>svgclose2</title>
    <g id="close2" stroke="none" stroke-width="1" fill="none" fill-rule="evenodd">
        <g id="编组" transform="translate(27.000000, 27.000000)" fill="#000000" fill-rule="nonzero">
            <path d="M25.2328535,0.00778914073 C24.9258144,0.0389036979 24.6507956,0.162983874 24.4152942,0.375493046 L13.45,11.319442 L2.59033381,0.479927341 C2.30296769,0.166616397 1.93433238,0 1.51099336,0 C1.09117721,0 0.715702578,0.163536462 0.398717723,0.479927341 C0.129203925,0.790219409 0,1.14316754 0,1.54158339 L0.00775292867,1.70871684 C0.0387394714,2.0385456 0.162459094,2.34139054 0.376193223,2.6108646 L11.2892283,13.4733913 L0.399334541,24.27971 C0.126472624,24.6204176 0,24.9858366 0,25.3912901 C0,25.8000612 0.128770397,26.1585898 0.384164585,26.4537552 C0.736755575,26.7389877 1.09895006,26.870448 1.50158393,26.8834118 L1.65597946,26.8813595 C2.01048754,26.8600255 2.32420346,26.7230495 2.58546681,26.4741291 L13.45,15.6292899 L24.3096662,26.4693829 C24.6107359,26.7563382 24.9739915,26.9 25.3890066,26.9 C25.8040218,26.9 26.1672774,26.7563382 26.4634801,26.4741291 C26.7559517,26.1687618 26.9,25.8058925 26.9,25.3912901 L26.8933826,25.2390641 C26.8625283,24.8885215 26.7239669,24.5709307 26.481657,24.294524 L15.6088225,13.4733913 L26.4683471,2.63611291 C26.7581803,2.3064783 26.9,1.94248235 26.9,1.54158339 C26.9,1.13725123 26.7554747,0.780049714 26.4731028,0.484785859 C26.180981,0.166616397 25.8123457,0 25.3890066,0 L25.2328535,0.00778914073 Z" id="路径"></path>
        </g>
    </g>
</svg>